<svg xmlns="http://www.w3.org/2000/svg" width="205" height="54" fill="none"><path fill="#8530E4" fill-rule="evenodd" d="M47 0H0v20h14v34h20V20h13V0Z" clip-rule="evenodd"/><path fill="#8530E4" d="M126.5 0H106v54h20.5S148 50.5 148 27.5 126.5 0 126.5 0Z"/><path fill="#00CC9C" fill-rule="evenodd" d="M76 54c14.912 0 27-12.088 27-27S90.912 0 76 0 49 12.088 49 27s12.088 27 27 27Zm-1.727-18.563L86.311 23.4a1.5 1.5 0 0 0 0-2.13l-1.871-1.832a1.5 1.5 0 0 0-2.118 0l-9.072 8.96-3.82-3.706a1.499 1.499 0 0 0-2.117 0l-1.874 1.875a1.5 1.5 0 0 0 0 2.12l6.714 6.75a1.5 1.5 0 0 0 2.12 0Z" clip-rule="evenodd"/><path fill="#ED1842" fill-rule="evenodd" d="M163 4.55A26.999 26.999 0 0 1 178 0a27.03 27.03 0 0 1 27 27 27 27 0 1 1-42-22.45Zm25.228 29.962a2.087 2.087 0 0 0-.451-.674L180.936 27l6.841-6.838a2.087 2.087 0 0 0 .609-1.47 2.086 2.086 0 0 0-.609-1.47 2.078 2.078 0 0 0-2.939 0L178 24.065l-6.838-6.841a2.08 2.08 0 0 0-2.939 0 2.077 2.077 0 0 0 0 2.939L175.064 27l-6.841 6.838a2.087 2.087 0 0 0-.609 1.47 2.086 2.086 0 0 0 .609 1.47 2.08 2.08 0 0 0 2.939 0L178 29.935l6.838 6.841a2.08 2.08 0 0 0 3.39-2.265Z" clip-rule="evenodd"/></svg>